<mxfile host="app.diagrams.net" modified="2024-04-23T19:15:16.634Z" agent="Mozilla/5.0 (Windows NT 10.0; Win64; x64) AppleWebKit/537.36 (KHTML, like Gecko) Chrome/124.0.0.0 Safari/537.36 Edg/124.0.0.0" etag="bSz-mE7fO0B-cgW88VrB" version="24.2.8" type="device">
  <diagram name="Seite-1" id="_n6qNZYTXdVHBTKg2dZ6">
    <mxGraphModel dx="834" dy="617" grid="1" gridSize="10" guides="1" tooltips="1" connect="1" arrows="1" fold="1" page="1" pageScale="1" pageWidth="827" pageHeight="1169" math="0" shadow="0">
      <root>
        <mxCell id="0" />
        <mxCell id="1" parent="0" />
        <mxCell id="hyln0Gt6EnGzPxfGqNVm-5" value=":Registry" style="shape=umlLifeline;perimeter=lifelinePerimeter;whiteSpace=wrap;html=1;container=1;dropTarget=0;collapsible=0;recursiveResize=0;outlineConnect=0;portConstraint=eastwest;newEdgeStyle={&quot;curved&quot;:0,&quot;rounded&quot;:0};" vertex="1" parent="1">
          <mxGeometry x="270" y="40" width="100" height="460" as="geometry" />
        </mxCell>
        <mxCell id="hyln0Gt6EnGzPxfGqNVm-6" value=":Prüfinstanz" style="shape=umlLifeline;perimeter=lifelinePerimeter;whiteSpace=wrap;html=1;container=1;dropTarget=0;collapsible=0;recursiveResize=0;outlineConnect=0;portConstraint=eastwest;newEdgeStyle={&quot;curved&quot;:0,&quot;rounded&quot;:0};" vertex="1" parent="1">
          <mxGeometry x="80" y="40" width="100" height="470" as="geometry" />
        </mxCell>
        <mxCell id="hyln0Gt6EnGzPxfGqNVm-7" value=":AAS" style="shape=umlLifeline;perimeter=lifelinePerimeter;whiteSpace=wrap;html=1;container=1;dropTarget=0;collapsible=0;recursiveResize=0;outlineConnect=0;portConstraint=eastwest;newEdgeStyle={&quot;curved&quot;:0,&quot;rounded&quot;:0};" vertex="1" parent="1">
          <mxGeometry x="470" y="40" width="100" height="460" as="geometry" />
        </mxCell>
        <mxCell id="hyln0Gt6EnGzPxfGqNVm-8" value="" style="rounded=1;whiteSpace=wrap;html=1;absoluteArcSize=1;arcSize=14;strokeWidth=2;" vertex="1" parent="1">
          <mxGeometry x="120" y="110" width="20" height="180" as="geometry" />
        </mxCell>
        <mxCell id="hyln0Gt6EnGzPxfGqNVm-9" value="return" style="html=1;verticalAlign=bottom;endArrow=open;dashed=1;endSize=8;curved=0;rounded=0;entryX=1;entryY=0.867;entryDx=0;entryDy=0;entryPerimeter=0;" edge="1" parent="1" source="hyln0Gt6EnGzPxfGqNVm-5" target="hyln0Gt6EnGzPxfGqNVm-8">
          <mxGeometry relative="1" as="geometry">
            <mxPoint x="280" y="280" as="sourcePoint" />
            <mxPoint x="170" y="260" as="targetPoint" />
          </mxGeometry>
        </mxCell>
        <mxCell id="hyln0Gt6EnGzPxfGqNVm-10" value="return" style="html=1;verticalAlign=bottom;endArrow=open;dashed=1;endSize=8;curved=0;rounded=0;entryX=1;entryY=0.75;entryDx=0;entryDy=0;" edge="1" parent="1">
          <mxGeometry x="0.0026" relative="1" as="geometry">
            <mxPoint x="519.5" y="171" as="sourcePoint" />
            <mxPoint x="330" y="171" as="targetPoint" />
            <mxPoint as="offset" />
          </mxGeometry>
        </mxCell>
        <mxCell id="hyln0Gt6EnGzPxfGqNVm-11" value="" style="endArrow=classic;html=1;rounded=0;exitX=1;exitY=0.056;exitDx=0;exitDy=0;exitPerimeter=0;" edge="1" parent="1" source="hyln0Gt6EnGzPxfGqNVm-8" target="hyln0Gt6EnGzPxfGqNVm-5">
          <mxGeometry width="50" height="50" relative="1" as="geometry">
            <mxPoint x="150" y="130" as="sourcePoint" />
            <mxPoint x="330" y="230" as="targetPoint" />
          </mxGeometry>
        </mxCell>
        <mxCell id="hyln0Gt6EnGzPxfGqNVm-12" value="" style="endArrow=classic;html=1;rounded=0;" edge="1" parent="1">
          <mxGeometry width="50" height="50" relative="1" as="geometry">
            <mxPoint x="320" y="150" as="sourcePoint" />
            <mxPoint x="520" y="150" as="targetPoint" />
          </mxGeometry>
        </mxCell>
        <mxCell id="hyln0Gt6EnGzPxfGqNVm-13" value="" style="rounded=1;whiteSpace=wrap;html=1;absoluteArcSize=1;arcSize=14;strokeWidth=2;" vertex="1" parent="1">
          <mxGeometry x="310" y="130" width="20" height="70" as="geometry" />
        </mxCell>
        <mxCell id="hyln0Gt6EnGzPxfGqNVm-16" value="&lt;div&gt;&#39;GET&#39; \&lt;span style=&quot;background-color: initial;&quot;&gt;&amp;nbsp; &#39;http://127.0.0.1:8081/submodels?idShort=AASID&amp;amp;encodedCursor=string&amp;amp;decodedCursor=string&amp;amp;level=deep&#39; \&lt;/span&gt;&lt;span style=&quot;background-color: initial;&quot;&gt;&amp;nbsp;-H accept: application/json&#39;&lt;/span&gt;&lt;/div&gt;" style="text;html=1;align=left;verticalAlign=middle;whiteSpace=wrap;rounded=0;" vertex="1" parent="1">
          <mxGeometry x="140" y="626" width="303" height="30" as="geometry" />
        </mxCell>
        <mxCell id="hyln0Gt6EnGzPxfGqNVm-17" value="Get 1*" style="text;html=1;align=center;verticalAlign=middle;whiteSpace=wrap;rounded=0;" vertex="1" parent="1">
          <mxGeometry x="200" y="95" width="60" height="20" as="geometry" />
        </mxCell>
        <mxCell id="hyln0Gt6EnGzPxfGqNVm-20" value="1*: Get Befehl für Prüfplan&amp;nbsp;" style="text;html=1;align=center;verticalAlign=middle;whiteSpace=wrap;rounded=0;" vertex="1" parent="1">
          <mxGeometry x="60" y="626" width="60" height="30" as="geometry" />
        </mxCell>
        <mxCell id="hyln0Gt6EnGzPxfGqNVm-24" value="Get 2*" style="text;html=1;align=center;verticalAlign=middle;whiteSpace=wrap;rounded=0;" vertex="1" parent="1">
          <mxGeometry x="384" y="120" width="60" height="30" as="geometry" />
        </mxCell>
        <mxCell id="hyln0Gt6EnGzPxfGqNVm-26" value="2*:&amp;nbsp;" style="text;html=1;align=center;verticalAlign=middle;whiteSpace=wrap;rounded=0;" vertex="1" parent="1">
          <mxGeometry x="60" y="676" width="60" height="30" as="geometry" />
        </mxCell>
        <mxCell id="hyln0Gt6EnGzPxfGqNVm-27" value="RFID: ID_auto + ID_AAS" style="text;html=1;align=left;verticalAlign=middle;whiteSpace=wrap;rounded=0;" vertex="1" parent="1">
          <mxGeometry x="60" y="576" width="130" height="30" as="geometry" />
        </mxCell>
        <mxCell id="hyln0Gt6EnGzPxfGqNVm-28" value="Registry fragt an richtiger AAS Prpfplan ab" style="text;html=1;align=left;verticalAlign=middle;whiteSpace=wrap;rounded=0;" vertex="1" parent="1">
          <mxGeometry x="130" y="676" width="300" height="30" as="geometry" />
        </mxCell>
        <mxCell id="hyln0Gt6EnGzPxfGqNVm-29" value="JSON-Prüfplan" style="text;html=1;align=center;verticalAlign=middle;whiteSpace=wrap;rounded=0;" vertex="1" parent="1">
          <mxGeometry x="390" y="166" width="100" height="30" as="geometry" />
        </mxCell>
        <mxCell id="hyln0Gt6EnGzPxfGqNVm-33" value="JSON-Prüfplan" style="text;html=1;align=center;verticalAlign=middle;whiteSpace=wrap;rounded=0;" vertex="1" parent="1">
          <mxGeometry x="188" y="260" width="97" height="30" as="geometry" />
        </mxCell>
        <mxCell id="hyln0Gt6EnGzPxfGqNVm-34" value=":Object" style="shape=umlLifeline;perimeter=lifelinePerimeter;whiteSpace=wrap;html=1;container=1;dropTarget=0;collapsible=0;recursiveResize=0;outlineConnect=0;portConstraint=eastwest;newEdgeStyle={&quot;curved&quot;:0,&quot;rounded&quot;:0};" vertex="1" parent="1">
          <mxGeometry x="600" y="40" width="100" height="460" as="geometry" />
        </mxCell>
        <mxCell id="hyln0Gt6EnGzPxfGqNVm-35" value="" style="rounded=1;whiteSpace=wrap;html=1;absoluteArcSize=1;arcSize=14;strokeWidth=2;" vertex="1" parent="1">
          <mxGeometry x="120" y="340" width="20" height="120" as="geometry" />
        </mxCell>
        <mxCell id="hyln0Gt6EnGzPxfGqNVm-36" value="" style="endArrow=classic;html=1;rounded=0;exitX=1;exitY=0.25;exitDx=0;exitDy=0;" edge="1" parent="1" source="hyln0Gt6EnGzPxfGqNVm-35" target="hyln0Gt6EnGzPxfGqNVm-34">
          <mxGeometry width="50" height="50" relative="1" as="geometry">
            <mxPoint x="210" y="420" as="sourcePoint" />
            <mxPoint x="260" y="370" as="targetPoint" />
          </mxGeometry>
        </mxCell>
        <mxCell id="hyln0Gt6EnGzPxfGqNVm-37" value="modifizierter JSON-Prüfplan" style="text;html=1;align=center;verticalAlign=middle;whiteSpace=wrap;rounded=0;" vertex="1" parent="1">
          <mxGeometry x="336" y="345" width="180" height="30" as="geometry" />
        </mxCell>
        <mxCell id="hyln0Gt6EnGzPxfGqNVm-39" value="return" style="html=1;verticalAlign=bottom;endArrow=open;dashed=1;endSize=8;curved=0;rounded=0;entryX=1.025;entryY=0.65;entryDx=0;entryDy=0;entryPerimeter=0;" edge="1" parent="1" target="hyln0Gt6EnGzPxfGqNVm-35">
          <mxGeometry relative="1" as="geometry">
            <mxPoint x="669.5" y="420" as="sourcePoint" />
            <mxPoint x="160" y="430" as="targetPoint" />
          </mxGeometry>
        </mxCell>
        <mxCell id="hyln0Gt6EnGzPxfGqNVm-40" value="Prüfergebnis JSON" style="text;html=1;align=center;verticalAlign=middle;whiteSpace=wrap;rounded=0;" vertex="1" parent="1">
          <mxGeometry x="363" y="412" width="130" height="30" as="geometry" />
        </mxCell>
      </root>
    </mxGraphModel>
  </diagram>
</mxfile>
